<?xml version="1.0" encoding="UTF-8"?>
<svg version="1.1" xmlns="http://www.w3.org/2000/svg" width="1600" height="1549">
<path d="M0 0 C2.0240192 2.0240192 3.40692996 3.70314217 5 6 C7.17824079 8.23409312 9.39199876 10.41937322 11.6484375 12.57421875 C13.13386989 14.01432104 14.57067488 15.50419464 16 17 C16 17.66 16 18.32 16 19 C16.8353125 19.3403125 16.8353125 19.3403125 17.6875 19.6875 C22.68999756 22.52675537 26.36459315 27.45802108 30.1875 31.6875 C34.5668897 36.508108 39.10326925 41.13022976 43.73828125 45.70703125 C46.31396829 48.31830636 48.68720168 51.05553875 51.0625 53.84765625 C54.03911562 57.15434013 57.23385668 60.24198546 60.44506836 63.32006836 C61.66635228 64.510569 62.83786035 65.7516981 64 67 C64 67.66 64 68.32 64 69 C64.66 69 65.32 69 66 69 C67.3046875 70.328125 67.3046875 70.328125 68.875 72.25 C72.07888228 76.03031299 75.47313278 79.52668608 79 83 C82.28517449 86.2439464 85.507399 89.47929294 88.5 93 C93.31794575 98.66049292 98.71472204 103.7816475 104 109 C107.24902752 112.20982357 110.38940534 115.47373929 113.4375 118.875 C114.60345703 120.174375 114.60345703 120.174375 115.79296875 121.5 C117.64648746 123.59956101 119.45638858 125.72452015 121.25 127.875 C122.92221246 129.84958512 124.38977095 131.30981794 126.4375 132.9375 C130.72823392 136.39101755 134.09633893 140.70726951 137.60546875 144.93359375 C139.77722694 147.52965432 141.77856661 149.82398884 144.4375 151.9375 C146.62814642 153.70070322 148.198158 155.31247749 150 157.4375 C153.96605712 162.11020427 158.32583445 166.35462907 162.73242188 170.60717773 C164.19114064 172.03539989 165.60024443 173.51394371 167 175 C167 175.66 167 176.32 167 177 C167.59683594 177.25910156 168.19367188 177.51820313 168.80859375 177.78515625 C171.1791227 179.09929975 172.361298 180.34471698 174.0625 182.4375 C177.48784646 186.4963514 181.17819944 190.21007948 184.95800781 193.93798828 C187.52114085 196.48097365 189.98108201 199.05611468 192.3125 201.8125 C195.66888269 205.75401478 199.32317681 209.36138253 203 213 C207.22843162 217.18453976 211.31036295 221.39113022 215.15625 225.93359375 C219.53487981 230.84099877 224.32151835 235.38074991 229 240 C232.22826866 243.18937385 235.3485807 246.43099541 238.375 249.8125 C239.15101562 250.67875 239.92703125 251.545 240.7265625 252.4375 C243.2740725 255.3089202 245.79563765 258.20148727 248.296875 261.11328125 C250.44861407 263.49697384 252.7176668 265.74102401 255 268 C255.97974613 268.97858686 256.95889352 269.95777347 257.9375 270.9375 C258.44023438 271.44023437 258.94296875 271.94296875 259.4609375 272.4609375 C260.99479167 273.99479167 262.52864583 275.52864583 264.0625 277.0625 C264.55395508 277.55387451 265.04541016 278.04524902 265.55175781 278.55151367 C266.94653788 279.94652886 268.34047337 281.34238833 269.734375 282.73828125 C271.22984526 284.23117311 272.73492384 285.71450929 274.25 287.1875 C277.53653673 290.54873075 280.64614576 294.04954231 283.7734375 297.55859375 C285.64744575 299.61342736 287.56186889 301.57048137 289.5625 303.5 C292 306 292 306 292 308 C292.8971875 308.39058594 292.8971875 308.39058594 293.8125 308.7890625 C296.16377472 310.09066101 297.3175226 311.29819196 299 313.375 C302.15789611 317.11819582 305.51455832 320.56734356 309 324 C312.89103362 327.84214979 316.59812334 331.74140817 320.1328125 335.91796875 C323.08091311 339.20528596 326.25858512 342.26566618 329.44555664 345.32055664 C330.66668115 346.51089111 331.83801717 347.75186654 333 349 C333 349.66 333 350.32 333 351 C333.99 351.33 334.98 351.66 336 352 C337.54296875 353.56640625 337.54296875 353.56640625 339.1875 355.5625 C342.41826442 359.39385524 345.86879734 362.88071398 349.49609375 366.3359375 C351 368 351 368 351 370 C351.8971875 370.39058594 351.8971875 370.39058594 352.8125 370.7890625 C355.16377472 372.09066101 356.3175226 373.29819196 358 375.375 C361.15789611 379.11819582 364.51455832 382.56734356 368 386 C371.89617995 389.84723146 375.6008501 393.75864582 379.15234375 397.9296875 C384.01259619 403.37563632 389.36017519 408.39650305 394.5546875 413.51953125 C396.95096633 415.95026138 399.23455567 418.44738667 401.5 421 C403.95223173 423.75108468 406.40022277 426.4514953 409.0625 429 C411 431 411 431 411 433 C411.8353125 433.3403125 411.8353125 433.3403125 412.6875 433.6875 C417.33680591 436.32629525 420.60684572 440.67413155 424.125 444.625 C428.39323183 449.40541965 432.88983353 453.90905975 437.4453125 458.4140625 C440.14294146 461.14468998 442.63672931 463.98731707 445.125 466.90625 C447.48345248 469.53985527 449.98445404 472.01826514 452.5 474.5 C456.21845505 478.16847581 459.73668195 481.93149229 463.125 485.90625 C465.93393243 489.04289122 468.94820294 491.96918735 471.94433594 494.92480469 C474.6570434 497.61504667 477.25831312 500.35425579 479.75 503.25 C482.02766405 505.88815765 484.30966417 508.51374151 486.6875 511.0625 C487.22761719 511.65160156 487.76773437 512.24070312 488.32421875 512.84765625 C489.94230993 514.22484318 489.94230993 514.22484318 492.02734375 513.8046875 C494.24056431 512.98019138 494.24056431 512.98019138 496.875 511.0625 C502.43370213 507.84124375 508.72460171 507.62111451 515 507 C515.87914062 506.90976562 516.75828125 506.81953125 517.6640625 506.7265625 C542.1387274 504.25908947 569.06020168 502.49704001 592 513 C593.0828125 513.40798828 593.0828125 513.40798828 594.1875 513.82421875 C604.31587978 518.01034346 613.69597317 528.07808551 618 538 C625.18576847 556.74907405 621.03717907 579.52920133 613.1875 597.375 C612.84662354 598.13619141 612.50574707 598.89738281 612.15454102 599.68164062 C609.34675459 605.98325519 607.05026199 612.37105517 604.9375 618.9375 C604.62643311 619.87964355 604.31536621 620.82178711 603.99487305 621.79248047 C603.57782104 623.11530029 603.57782104 623.11530029 603.15234375 624.46484375 C602.7809729 625.63454712 602.7809729 625.63454712 602.40209961 626.82788086 C601.94649486 629.2890317 602.11300038 630.67059831 603 633 C605.25340795 635.50926259 605.25340795 635.50926259 608 638 C613.69579649 643.62018857 619.31664349 649.21796266 624.5234375 655.30078125 C627.13170456 658.30235842 629.9969794 661.036932 632.86328125 663.7890625 C633.50652344 664.41554688 634.14976563 665.04203125 634.8125 665.6875 C635.41707031 666.26886719 636.02164062 666.85023438 636.64453125 667.44921875 C638 669 638 669 638 671 C638.556875 671.226875 639.11375 671.45375 639.6875 671.6875 C642.64398542 673.36550524 644.71666674 675.52922894 647 678 C647.76570313 678.81855469 648.53140625 679.63710938 649.3203125 680.48046875 C656 687.73599138 656 687.73599138 656 690 C656.556875 690.226875 657.11375 690.45375 657.6875 690.6875 C662.69179203 693.52777385 666.44439851 698.48702831 670.3125 702.6875 C671.63701172 704.11642578 671.63701172 704.11642578 672.98828125 705.57421875 C675 708 675 708 675 710 C664.01281335 712.5831463 653.0454413 715.10508663 641.91210938 716.97583008 C637.59852633 717.70387621 633.33269291 718.55106824 629.0625 719.5 C623.87252871 720.6408479 618.68073092 721.58817193 613.4375 722.4375 C598.86416338 724.80295416 584.34400571 727.48718227 570 731 C569.62488281 732.258125 569.24976563 733.51625 568.86328125 734.8125 C566.25623962 743.53922881 563.62855286 752.25661569 560.88696289 760.94213867 C559.78420409 764.44886832 558.70934416 767.96163791 557.671875 771.48828125 C554.43687311 782.47599621 550.91195618 793.34081915 547.25585938 804.19580078 C544.70019408 811.81398303 542.31746993 819.45587733 540.10546875 827.1796875 C538.7853345 831.74184755 537.36657864 836.26812966 535.93554688 840.79638672 C534.81496093 844.35554009 533.72098043 847.92021845 532.66796875 851.5 C529.43497941 862.48401908 525.91063888 873.34473021 522.25585938 884.19580078 C519.69888444 891.81788692 517.31556484 899.46389786 515.1015625 907.19140625 C513.80450172 911.67592491 512.41356215 916.12762647 511.00805664 920.57885742 C509.78284919 924.46956026 508.58356022 928.3667668 507.41015625 932.2734375 C504.04382885 943.4719447 500.5348539 954.60200151 496.75268555 965.66796875 C494.89168556 971.1516203 493.22497698 976.64537707 491.73681641 982.24169922 C490.49040019 986.90770664 489.14490659 991.54546122 487.8125 996.1875 C487.53986328 997.13947266 487.26722656 998.09144531 486.98632812 999.07226562 C486.32483531 1001.38168791 485.66272022 1003.6909297 485 1006 C485.56267578 1006.11754639 486.12535156 1006.23509277 486.70507812 1006.35620117 C491.73224912 1007.43518571 496.60142992 1008.73281406 501.5 1010.3125 C507.14698971 1012.11438845 512.80817674 1013.84514903 518.5 1015.5 C526.70196894 1017.88934779 534.85500657 1020.42385807 543 1023 C540.95966125 1033.38717908 537.71969865 1043.53342431 534 1053.4375 C532.04264266 1058.68856306 530.47776596 1064.0238027 528.92138672 1069.40356445 C527.35415817 1074.81876089 525.70506875 1080.20064245 524.00927734 1085.57714844 C522.19256026 1091.35116739 520.43876711 1097.14334123 518.6875 1102.9375 C515.81583202 1112.43070934 512.82400876 1121.88175229 509.75268555 1131.31225586 C507.64376068 1137.82864515 505.74275353 1144.37623843 504 1151 C500.23745289 1149.27063965 498.43276569 1147.35173005 495.875 1144.0625 C492.70458529 1140.07609331 489.45622104 1136.2415477 486 1132.5 C481.90648909 1128.05272888 478.07557501 1123.45282537 474.28125 1118.75 C471.93281032 1115.91900422 469.49090098 1113.20616402 467 1110.5 C463.70668301 1106.92207537 460.55348679 1103.28460334 457.5 1099.5 C453.62627442 1094.69905287 449.54979153 1090.13139249 445.359375 1085.60546875 C442.81894131 1082.80005605 440.40542663 1079.92148447 438 1077 C427.63986561 1079.91794334 417.29209314 1082.8517395 407.03125 1086.10424805 C401.70340313 1087.79064022 396.35514518 1089.40258453 391 1091 C384.80552499 1092.85243174 378.61310402 1094.71043616 372.4375 1096.625 C371.4633313 1096.92700317 371.4633313 1096.92700317 370.46948242 1097.23510742 C365.68210775 1098.73981639 360.9931796 1100.4436623 356.33203125 1102.30078125 C353.78070624 1103.0657514 351.64894155 1103.12703627 349 1103 C349.30292969 1102.11441406 349.60585937 1101.22882813 349.91796875 1100.31640625 C352.48652138 1092.72139372 354.89307377 1085.10401392 357.12597656 1077.40380859 C358.5078965 1072.6466083 359.9464918 1067.91159803 361.4375 1063.1875 C363.34480266 1057.14041502 365.18658661 1051.07588747 367 1045 C374.05763825 1021.40095169 374.05763825 1021.40095169 377 1013.5625 C379.50173384 1006.85422177 381.40209539 999.97176143 383.38867188 993.09814453 C384.31712399 989.91159603 385.27983616 986.73662301 386.25 983.5625 C386.56453125 982.53253906 386.8790625 981.50257813 387.203125 980.44140625 C388 978 388 978 389 976 C399.07558887 978.32402551 408.90638155 981.16027907 418.74316406 984.34619141 C427.1175414 987.0570995 435.54162614 989.56569346 444 992 C444.25136719 990.76378906 444.50273438 989.52757812 444.76171875 988.25390625 C446.07321517 982.35965674 447.93509598 976.67179726 449.8125 970.9375 C450.53420944 968.70714618 451.25556408 966.47667752 451.9765625 964.24609375 C452.32493164 963.17214355 452.67330078 962.09819336 453.03222656 960.99169922 C455.98410851 951.86648193 458.810027 942.70582407 461.5 933.5 C467.61918993 912.56441596 467.61918993 912.56441596 471 903.5625 C472.95735734 898.31143694 474.52223404 892.9761973 476.07861328 887.59643555 C477.64564541 882.18191778 479.29340065 876.80035051 480.99072266 871.42504883 C482.21632352 867.53303935 483.41604724 863.63454013 484.58984375 859.7265625 C487.93095781 848.61130272 491.44284595 837.57589845 495.15283203 826.578125 C497.56275384 819.40133782 499.77123565 812.18875553 501.86328125 804.9140625 C502.97604143 801.04948938 504.16505824 797.21012226 505.375 793.375 C507.42042707 786.88846886 509.4048319 780.38476603 511.375 773.875 C514.80696957 762.54807637 518.38028719 751.26816431 522 740 C521.35788574 740.13051758 520.71577148 740.26103516 520.05419922 740.39550781 C508.61585649 742.71527116 497.17654521 745.0064018 485.6875 747.0625 C478.15951367 748.41101592 470.65510129 749.84323339 463.15966797 751.36181641 C455.38617413 752.93339114 447.60003815 754.43730684 439.8125 755.9375 C430.17924758 757.79333792 420.55367903 759.68222281 410.9375 761.625 C402.15690272 763.39811326 393.3601662 765.04591602 384.54174805 766.61938477 C379.58773853 767.50917157 374.66506977 768.47339728 369.75 769.5625 C363.6480104 770.91360239 357.51794501 771.9455639 351.35009766 772.93896484 C347.40981573 773.57873748 343.51419275 774.27767237 339.625 775.1875 C336 776 336 776 332 776 C332.15855469 775.47535156 332.31710937 774.95070313 332.48046875 774.41015625 C333.71367392 770.31537003 334.93850213 766.21844946 336.13671875 762.11328125 C338.34871105 754.53780703 340.60827767 746.98341578 342.97949219 739.45605469 C344.89762038 733.3567044 346.76484477 727.24225615 348.625 721.125 C349.0588501 719.69873291 349.0588501 719.69873291 349.50146484 718.24365234 C350.06136541 716.4005793 350.61856409 714.55668296 351.17285156 712.71191406 C351.73619199 710.86492897 352.31700917 709.02320491 352.91308594 707.18652344 C353.19700195 706.29739258 353.48091797 705.40826172 353.7734375 704.4921875 C354.16281494 703.30278564 354.16281494 703.30278564 354.56005859 702.08935547 C355.22112867 699.82186298 355.22112867 699.82186298 354 697 C352.47930027 695.41983233 352.47930027 695.41983233 350.5625 693.875 C349.85222656 693.27042969 349.14195313 692.66585937 348.41015625 692.04296875 C347.21712891 691.03169922 347.21712891 691.03169922 346 690 C344.15908466 688.40454003 342.32575154 686.80029048 340.5 685.1875 C339.6440625 684.43855469 338.788125 683.68960938 337.90625 682.91796875 C336 681 336 681 336 679 C335.21302734 678.69255859 335.21302734 678.69255859 334.41015625 678.37890625 C330.94234225 676.39488949 328.30751106 673.69486958 325.4375 670.9375 C320.27848152 666.05873115 315.02176002 661.45528251 309.48828125 657.00390625 C307.06778338 655.0545885 304.67709023 653.07923458 302.3125 651.0625 C301.66925781 650.51722656 301.02601562 649.97195313 300.36328125 649.41015625 C299 648 299 648 299 646 C298.21625 645.7525 297.4325 645.505 296.625 645.25 C293.53506013 643.77860006 293.46340773 642.92681545 292 640 C290.34183216 639.31246699 288.67540664 638.64438717 287 638 C286.67 637.01 286.34 636.02 286 635 C284.33891134 634.31955404 282.67124362 633.65510837 281 633 C278.67578125 631.1171875 278.67578125 631.1171875 276.3125 628.875 C271.39345645 624.32033005 266.26771327 620.14128402 261 616 C259.41565627 614.73042655 257.83233643 613.45957438 256.25 612.1875 C249.86645917 607.08266531 243.44031733 602.03290219 237 597 C236.47035645 596.58492187 235.94071289 596.16984375 235.39501953 595.7421875 C227.24596857 589.36489297 218.90748916 583.27856396 210.50390625 577.2421875 C206.33818918 574.24899648 202.19572273 571.22534945 198.0625 568.1875 C197.4452002 567.73455566 196.82790039 567.28161133 196.19189453 566.81494141 C193.50815684 564.84532514 190.82734466 562.87210716 188.15234375 560.890625 C182.37263223 556.63457823 176.47132588 552.60418379 170.48535156 548.64697266 C166.86779605 546.25406228 163.28866336 543.82163173 159.75 541.3125 C155.47197319 538.29021241 151.08404315 535.47438341 146.65234375 532.68359375 C144.24418573 531.1549986 141.86730392 529.59086199 139.5 528 C134.39034135 524.57553741 129.20385121 521.27913912 124 518 C123.104021 517.43490723 123.104021 517.43490723 122.18994141 516.85839844 C113.15548089 511.16620593 104.05856719 505.59177745 94.88525391 500.12646484 C92.93449329 498.96085885 90.98821405 497.7880662 89.04296875 496.61328125 C88.3869165 496.21761963 87.73086426 495.82195801 87.05493164 495.41430664 C85.82299218 494.67109105 84.59164751 493.92688805 83.36108398 493.18139648 C72.35074211 486.55092785 60.94010534 480.57626971 49.64990234 474.44091797 C48.03220208 473.56127296 46.4151682 472.68039922 44.79931641 471.79736328 C37.11112348 467.59738496 29.3426046 463.67985485 21.39404297 459.99462891 C16.65179697 457.79344621 11.97249288 455.49466855 7.3125 453.125 C-14.22586397 442.24025155 -36.5742827 432.45568414 -59.07958984 423.74951172 C-61.11808858 422.95391152 -63.14656558 422.13537428 -65.17578125 421.31640625 C-96.10708453 409.01455515 -128.48113571 399.05657855 -160.9375 391.69482422 C-163.0921302 391.20597875 -165.24568536 390.71238271 -167.3984375 390.21533203 C-196.05375984 383.61767515 -225.04263473 377.93476782 -254.28125 374.66650391 C-257.81921145 374.26516333 -261.3449758 373.82379972 -264.86889648 373.31396484 C-280.98042628 371.00127764 -297.138179 369.79756512 -313.36669922 368.69238281 C-317.20425583 368.43103659 -321.04090229 368.15832588 -324.87743187 367.88236332 C-352.35692171 365.91278233 -379.81764736 364.77956985 -407.375 364.8125 C-408.35068939 364.81310425 -409.32637878 364.8137085 -410.33163452 364.81433105 C-464.40720438 364.90295384 -519.00368811 367.66055556 -572.57418823 375.15086365 C-577.76893579 375.86638121 -582.96930687 376.41680987 -588.1875 376.9296875 C-598.08038841 377.92028831 -607.87174375 379.43576746 -617.68286133 381.03173828 C-620.59044787 381.50454464 -623.49919032 381.96965112 -626.40820312 382.43359375 C-628.29434158 382.73653905 -630.18041188 383.03990898 -632.06640625 383.34375 C-633.34325035 383.54852966 -633.34325035 383.54852966 -634.64588928 383.75744629 C-639.68822249 384.57977311 -644.68200667 385.52917308 -649.67344666 386.62072754 C-652.15304801 387.02494974 -654.49203964 387.0636775 -657 387 C-657.23783203 387.91265625 -657.23783203 387.91265625 -657.48046875 388.84375 C-659.16216247 395.16171537 -661.04015891 401.40432058 -663.01123047 407.63671875 C-665.45550131 415.39070359 -667.72959397 423.19366776 -670 431 C-673.50827915 429.47920927 -675.95271646 427.4004327 -678.75 424.8125 C-681.76438614 422.04858034 -684.78037221 419.29881021 -687.875 416.625 C-690.7228712 414.1495868 -693.50762877 411.61448067 -696.27490234 409.04931641 C-701.52313976 404.18773859 -706.8905747 399.55731724 -712.4609375 395.0625 C-716.92402316 391.43710119 -721.28008702 387.7227795 -725.34375 383.65234375 C-728.20535785 380.79494414 -731.14427022 378.0442162 -734.125 375.3125 C-734.64964844 374.82716797 -735.17429687 374.34183594 -735.71484375 373.84179688 C-738.06509902 371.68491704 -740.33937022 369.77375319 -743 368 C-743 367.34 -743 366.68 -743 366 C-743.53496094 365.78472656 -744.06992187 365.56945312 -744.62109375 365.34765625 C-747.8693805 363.5074938 -750.38415149 361.00153844 -753.0625 358.4375 C-758.02383026 353.76751832 -763.11896143 349.36710392 -768.4296875 345.09375 C-773.28987381 341.13469246 -777.9961703 337.00705648 -782.42578125 332.5703125 C-788.02056239 326.98402116 -793.96847639 321.74481129 -799.9375 316.5625 C-803.34689233 313.60115923 -806.67772447 310.55824341 -810 307.5 C-817.53694731 300.57062651 -825.25338988 293.92316899 -833.16796875 287.4296875 C-835.92250257 285.06648745 -838.450785 282.5812806 -841 280 C-842.84312021 278.27975447 -844.69744918 276.571444 -846.5625 274.875 C-847.49191406 274.02679688 -848.42132812 273.17859375 -849.37890625 272.3046875 C-851.8879577 270.02223697 -851.8879577 270.02223697 -854.33984375 268.3203125 C-854.88769531 267.88460938 -855.43554688 267.44890625 -856 267 C-856 266.34 -856 265.68 -856 265 C-856.81210937 264.66548828 -856.81210937 264.66548828 -857.640625 264.32421875 C-860.74981244 262.57916156 -863.17834044 260.24670527 -865.75 257.8125 C-866.82885345 256.80797732 -867.90828011 255.8040699 -868.98828125 254.80078125 C-869.5085791 254.31561035 -870.02887695 253.83043945 -870.56494141 253.33056641 C-874.71675381 249.48106359 -879.01751577 245.80794277 -883.37890625 242.19921875 C-883.97517822 241.70292969 -884.5714502 241.20664063 -885.18579102 240.6953125 C-886.38117835 239.70181066 -887.58080608 238.71338556 -888.78491211 237.73046875 C-890.22722472 236.53042375 -891.61865229 235.26974492 -893 234 C-893 233.34 -893 232.68 -893 232 C-893.55171875 231.76667969 -894.1034375 231.53335938 -894.671875 231.29296875 C-897.61255267 229.65980716 -899.79077251 227.60660793 -902.25 225.3125 C-903.23123071 224.40436397 -904.21300451 223.4968144 -905.1953125 222.58984375 C-906.12085938 221.73519531 -907.04640625 220.88054687 -908 220 C-909.36934331 218.78525997 -910.74364226 217.57606005 -912.125 216.375 C-913.05699219 215.56095703 -913.05699219 215.56095703 -914.0078125 214.73046875 C-915.49798243 213.43606624 -916.99369458 212.14803929 -918.4921875 210.86328125 C-919.31976562 210.14527344 -920.14734375 209.42726562 -921 208.6875 C-922.1446875 207.70330078 -922.1446875 207.70330078 -923.3125 206.69921875 C-925 205 -925 205 -925 203 C-920.77824245 201.50319505 -916.64932448 200.45598351 -912.25 199.625 C-900.17673532 197.28577691 -888.20359099 194.51540218 -876.22631836 191.73095703 C-875.0997583 191.46911621 -873.97319824 191.20727539 -872.8125 190.9375 C-871.13136108 190.54667236 -871.13136108 190.54667236 -869.41625977 190.14794922 C-862.35228123 188.51543622 -855.28286337 187.01847589 -848.1640625 185.64453125 C-844.10233824 184.81714297 -840.1064644 183.7855392 -836.09375 182.75 C-832.57891368 181.89791847 -829.04962531 181.19260982 -825.5 180.5 C-821.06535753 179.63459454 -816.68414611 178.7031975 -812.3125 177.5625 C-807.29923276 176.27280724 -802.26649183 175.23664403 -797.1875 174.25 C-788.40057031 172.53429456 -779.66712059 170.61030582 -770.9375 168.625 C-769.94559662 168.39958527 -769.94559662 168.39958527 -768.93365479 168.1696167 C-766.25159521 167.55992082 -763.56964126 166.94976353 -760.8878479 166.33889771 C-746.3056133 163.01829245 -731.71597165 159.74196139 -717.0625 156.75 C-702.4076952 153.75047855 -687.83882653 150.35973733 -673.25773621 147.02415466 C-658.73896339 143.70344304 -644.21854588 140.41557191 -629.625 137.4375 C-622.62509597 135.99629479 -615.67434273 134.48053185 -608.7578125 132.67578125 C-605.45989509 131.86765135 -602.14504935 131.21300807 -598.8125 130.5625 C-592.01459705 129.23489319 -585.2906777 127.68958978 -578.55859375 126.0625 C-572.39646495 124.59981574 -566.19532772 123.31313346 -560 122 C-556.46731825 121.2506065 -552.93467166 120.50105976 -549.40234375 119.75 C-547.04330613 119.24841061 -544.68392794 118.74842042 -542.32421875 118.25 C-535.73047095 116.84489503 -529.18639791 115.31804122 -522.65283203 113.65625 C-519.28317234 112.82267322 -515.91074748 112.14527655 -512.5 111.5 C-507.96207291 110.61455081 -503.47671099 109.65528026 -499 108.5 C-494.62564223 107.37282904 -490.24639869 106.42685328 -485.8125 105.5625 C-480.34082053 104.49499154 -474.92021112 103.30247415 -469.5 102 C-462.85271345 100.40266021 -456.19128569 99.02306412 -449.48046875 97.71484375 C-445.31319915 96.85893989 -441.21204126 95.81278484 -437.09375 94.75 C-432.31282443 93.59098774 -427.48379262 92.69195953 -422.65625 91.75 C-418.47963784 90.89325904 -414.37008077 89.8539254 -410.24316406 88.7878418 C-406.90945722 87.978005 -403.57075505 87.29857318 -400.203125 86.64453125 C-391.68659771 84.96718418 -383.2195591 83.08566357 -374.75 81.1875 C-373.16092615 80.83267718 -371.57181421 80.47802487 -369.98266602 80.12353516 C-366.80549883 79.41463694 -363.62850449 78.7049725 -360.45166016 77.99462891 C-354.28160782 76.61541354 -348.10958334 75.24509311 -341.9375 73.875 C-335.39763656 72.42283673 -328.85818712 70.96890683 -322.3203125 69.5078125 C-310.97403335 66.97483101 -299.62112069 64.48168313 -288.25 62.0625 C-278.29676166 59.94330652 -268.36178479 57.75046091 -258.4375 55.5 C-257.78905121 55.35299652 -257.14060242 55.20599304 -256.47250366 55.05453491 C-253.23649358 54.32079342 -250.00057 53.58667082 -246.76464844 52.85253906 C-231.21044255 49.33014691 -215.64353335 45.89861252 -200.02197266 42.6875 C-194.22618835 41.48857487 -188.48537947 40.17029216 -182.7578125 38.67578125 C-179.45989509 37.86765135 -176.14504935 37.21300807 -172.8125 36.5625 C-166.01459705 35.23489319 -159.2906777 33.68958978 -152.55859375 32.0625 C-146.39646495 30.59981574 -140.19532772 29.31313346 -134 28 C-130.46731825 27.2506065 -126.93467166 26.50105976 -123.40234375 25.75 C-121.04330613 25.24841061 -118.68392794 24.74842042 -116.32421875 24.25 C-109.73047095 22.84489503 -103.18639791 21.31804122 -96.65283203 19.65625 C-93.28317234 18.82267322 -89.91074748 18.14527655 -86.5 17.5 C-81.96207291 16.61455081 -77.47671099 15.65528026 -73 14.5 C-68.62564223 13.37282904 -64.24639869 12.42685328 -59.8125 11.5625 C-54.34082053 10.49499154 -48.92021112 9.30247415 -43.5 8 C-36.8620171 6.40489587 -30.21158778 5.02177174 -23.5078125 3.7265625 C-20.15388167 3.03187304 -16.87000461 2.19947492 -13.5625 1.3125 C-8.77926604 0.11669151 -4.90580135 -0.77460021 0 0 Z M530 556 C531.4128943 557.65412015 532.82672651 559.30744614 534.24462891 560.95727539 C535.34920108 562.24266557 536.45086856 563.53056324 537.54833984 564.82202148 C542.13966078 570.16361779 547.0420832 575.1258266 552.0625 580.0625 C557.28765247 585.20092795 562.31754117 590.3585736 567 596 C572.47270508 585.40334787 578.4514366 570.29038758 575.3125 558.39453125 C573.6170363 555.30131921 571.99717412 553.86435099 569 552 C556.71414161 549.39617617 541.42415034 550.76393109 530 556 Z M495.6875 644.5625 C489.38246198 653.86737093 486.40257566 664.87083705 488 676 C490.41830114 686.58729924 495.03772063 694.80070124 503.8203125 701.359375 C505.75363218 702.57000864 505.75363218 702.57000864 509 704 C509.74507812 704.35707031 510.49015625 704.71414063 511.2578125 705.08203125 C515.10661758 706.87941052 518.73828168 708.57382817 523 709 C523.6084375 709.06316406 524.216875 709.12632812 524.84375 709.19140625 C533.99703664 709.70544952 543.8673945 706.77401398 551 701 C551.58265625 700.53464844 552.1653125 700.06929687 552.765625 699.58984375 C561.73722723 692.22031334 565.72323214 683.18752724 567.4921875 671.84375 C568.01165316 660.476619 563.66784407 649.61895786 556.23046875 641.12109375 C548.257496 633.53908989 538.50907718 629.96465303 527.625 629.5625 C515.21204816 629.9125715 503.75815281 634.97218228 495.6875 644.5625 Z " fill="#21204D" transform="translate(925,0)"/>
<path d="M0 0 C5.11872198 0.71547294 10.24200269 1.29016362 15.38243103 1.82453918 C24.94298173 2.84239027 34.37795788 4.43426818 43.83946228 6.12532043 C44.70109985 6.27772186 45.56273743 6.43012329 46.45048523 6.58714294 C85.35838018 13.47890414 85.35838018 13.47890414 103.35899353 18.95735168 C106.84939324 19.98910506 110.36255732 20.8396516 113.90196228 21.68782043 C136.21946135 27.11849487 157.98144923 34.8204073 179.46446228 42.87532043 C180.59625916 43.29684387 181.72805603 43.71836731 182.89414978 44.15266418 C191.76738602 47.50552826 200.49093092 51.20536304 209.21641541 54.92170715 C211.21745366 55.77054028 213.22238946 56.6088034 215.23008728 57.44172668 C222.23621205 60.37694106 229.04559487 63.57537399 235.7855072 67.07258606 C238.94152392 68.69360692 242.05582859 70.13561465 245.39805603 71.33235168 C249.8704077 72.95506814 253.97167176 75.11779462 258.15196228 77.37532043 C259.82621008 78.2689832 261.50069833 79.16219559 263.17539978 80.05500793 C264.04003845 80.51745911 264.90467712 80.97991028 265.79551697 81.45637512 C268.482151 82.88472465 271.17814681 84.29345754 273.87852478 85.69563293 C282.82698085 90.34217949 291.70024966 95.06043445 300.42149353 100.12141418 C303.18354332 101.71340437 305.96809058 103.24301858 308.77696228 104.75032043 C323.21791966 112.56264164 337.95234907 120.87127617 351.21446228 130.56282043 C353.93923534 132.50160127 356.67808039 134.16760828 359.59727478 135.78938293 C362.49700273 137.47583559 365.24841771 139.37292545 368.02696228 141.25032043 C370.56307725 142.94106375 373.13316275 144.56700445 375.71446228 146.18782043 C386.31675161 152.91194273 396.4872059 160.28436814 406.68516541 167.60041809 C409.07722415 169.31437676 411.47383264 171.02191968 413.870224 172.72981262 C431.90644223 185.59093617 431.90644223 185.59093617 440.02305603 191.96516418 C442.40932089 193.83217781 444.81067779 195.67861021 447.21592712 197.52107239 C452.58050632 201.63111996 457.89547164 205.79321775 463.15977478 210.03157043 C465.2858678 211.73244485 467.43202836 213.40200338 469.58946228 215.06282043 C481.24313612 224.11083129 492.52614749 233.57040918 503.63096619 243.28010559 C506.66130288 245.91661956 509.7207113 248.51894693 512.77696228 251.12532043 C517.68592661 255.316668 522.51833763 259.57973324 527.28086853 263.93782043 C528.87961375 265.35638507 530.5443155 266.70153724 532.24180603 268.00032043 C532.97528259 268.61907043 533.70875916 269.23782043 534.46446228 269.87532043 C534.46446228 270.53532043 534.46446228 271.19532043 534.46446228 271.87532043 C535.33264587 272.26783997 535.33264587 272.26783997 536.21836853 272.66828918 C542.06240877 275.80882559 546.87078276 281.16679893 551.46446228 285.87532043 C552.90061441 287.31416704 554.33820297 288.75158085 555.77696228 290.18782043 C557.00620461 291.41691143 558.23538365 292.64606574 559.46446228 293.87532043 C559.27907898 294.49205627 559.09369568 295.10879211 558.9026947 295.74421692 C557.64153413 299.94342193 556.38322691 304.14335181 555.14024353 308.34797668 C551.39550111 320.97773457 547.4016445 333.52090577 543.36778259 346.06086731 C540.45598916 355.13307127 537.63687731 364.22958453 534.96446228 373.37532043 C528.84527235 394.31090447 528.84527235 394.31090447 525.46446228 403.31282043 C523.50710494 408.5638835 521.94222824 413.89912313 520.385849 419.27888489 C518.81862045 424.69408132 517.16953103 430.07596288 515.47373962 435.45246887 C513.95903587 440.26660767 512.48554043 445.09218442 511.02549744 449.923172 C506.07059501 466.31395598 500.90968698 482.64048383 495.46446228 498.87532043 C490.07068092 497.70275927 486.1398771 495.57251253 481.48008728 492.65657043 C477.18948295 490.12222383 472.73855246 487.95084885 468.26158142 485.76741028 C464.54994349 483.94963457 460.9420013 482.03195333 457.36509705 479.95588684 C453.47430288 477.74385666 449.49366749 475.69703574 445.52696228 473.62532043 C444.60181824 473.14151917 443.67667419 472.6577179 442.72349548 472.15925598 C435.3179127 468.29766855 427.86877852 464.5320071 420.38389587 460.82698059 C417.07293592 459.18539805 413.76915519 457.52947229 410.46446228 455.87532043 C409.13116148 455.20858871 407.79782818 454.54192195 406.46446228 453.87532043 C398.46446228 449.87532043 398.46446228 449.87532043 396.46665955 448.876297 C395.12613202 448.20611497 393.78547332 447.53619528 392.44468689 446.86653137 C389.22032521 445.25571761 385.99795731 443.64124102 382.78086853 442.01594543 C358.35746833 429.69825215 333.54081765 418.1672207 308.63633728 406.85969543 C307.89254822 406.52198624 307.14875916 406.18427704 306.38243103 405.83633423 C302.74909755 404.18753426 299.11454623 402.54148937 295.47813416 400.89949036 C284.51003582 395.9394427 284.51003582 395.9394427 279.78477478 393.55110168 C277.23035044 392.26186869 274.76075187 391.12833338 272.08946228 390.12532043 C267.18667456 388.21111473 262.39149724 386.0888302 257.58946228 383.93782043 C251.66262704 381.28645302 245.72284376 378.69101017 239.71836853 376.21907043 C235.45782553 374.4596145 231.21162801 372.66677701 226.96446228 370.87532043 C216.22332262 366.35086028 205.4775661 361.85331167 194.64805603 357.54328918 C191.63724976 356.34491144 188.63014029 355.13767117 185.62461853 353.92610168 C177.25218818 350.55515212 168.86955722 347.23366528 160.40660095 344.0962677 C155.36204724 342.22366341 150.34912197 340.27665773 145.33946228 338.31282043 C134.1887893 333.95558986 122.9246099 330.00780725 111.55821228 326.25032043 C106.96668019 324.71980974 102.40406318 323.10900988 97.83946228 321.50032043 C65.07846327 309.98072633 31.95529135 300.02134829 -1.53553772 290.87532043 C-2.32234924 290.65988586 -3.10916077 290.44445129 -3.91981506 290.2224884 C-13.80233799 287.5223589 -23.74172887 285.05106201 -33.68397522 282.58235168 C-38.5884068 281.36381013 -43.48864123 280.12932825 -48.38710022 278.88703918 C-63.07239995 275.16857216 -77.76626059 271.60389034 -92.59510803 268.49494934 C-95.78318772 267.82313381 -98.96811214 267.13759554 -102.15272522 266.44953918 C-109.27737594 264.91082334 -116.4057162 263.38987957 -123.53553772 261.87532043 C-124.62914612 261.64232239 -125.72275452 261.40932434 -126.84950256 261.16926575 C-143.41642321 257.65093514 -160.03005825 254.38995637 -176.66053772 251.18782043 C-178.15177658 250.89927689 -178.15177658 250.89927689 -179.67314148 250.60490417 C-190.52199986 248.50875932 -201.36901514 246.50078008 -212.29631042 244.85415649 C-216.87038454 244.16241209 -221.38391928 243.33151015 -225.91053772 242.37532043 C-232.80810063 240.94669899 -239.73208203 239.95657393 -246.7091217 239.00032043 C-252.00108867 238.26571029 -257.2308108 237.40657819 -262.47303772 236.37532043 C-269.71123487 234.96442312 -276.97135555 233.95852932 -284.28163147 232.99812317 C-289.86997999 232.25783971 -295.42176056 231.41548648 -300.97303772 230.43782043 C-310.58102628 228.76396259 -320.25367028 227.58084588 -329.92713928 226.36042786 C-337.53812041 225.39899781 -345.13469137 224.3765343 -352.72303772 223.25032043 C-359.86981822 222.19960626 -367.00944103 221.38759558 -374.2013092 220.71907043 C-382.75064733 219.90237728 -391.2657316 218.82611802 -399.78553772 217.75032043 C-400.88329025 217.61172104 -400.88329025 217.61172104 -402.0032196 217.47032166 C-406.18108842 216.94200029 -410.3584901 216.41010085 -414.53553772 215.87532043 C-410.37317144 200.05498118 -410.37317144 200.05498118 -408.09803772 192.87532043 C-407.89122375 192.22071838 -407.68440979 191.56611633 -407.47132874 190.89167786 C-406.01558779 186.30903395 -404.50252921 181.74629333 -402.97303772 177.18782043 C-400.22489716 168.99460634 -397.67434734 160.75126725 -395.23475647 152.46125793 C-392.15019708 142.01745749 -388.86054038 131.66608633 -385.33924866 121.36042786 C-383.45974018 115.82060024 -381.78276231 110.27243568 -380.2794342 104.61921692 C-379.01186387 99.94372528 -377.58195411 95.31841403 -376.16053772 90.68782043 C-375.85527161 89.69040833 -375.55000549 88.69299622 -375.23548889 87.6653595 C-374.33740898 84.73475814 -373.43655019 81.80502121 -372.53553772 78.87532043 C-372.28981018 78.07207336 -372.04408264 77.26882629 -371.79090881 76.4412384 C-369.83732554 70.05673221 -367.88195718 63.69182289 -365.53553772 57.43782043 C-363.58294988 52.19955265 -362.0215276 46.87763536 -360.46791077 41.51130676 C-358.9780824 36.36644807 -357.44056373 31.23935601 -355.84803772 26.12532043 C-355.64573547 25.47023499 -355.44343323 24.81514954 -355.23500061 24.14021301 C-354.68453872 22.3801564 -354.11082391 20.62742013 -353.53553772 18.87532043 C-353.35120178 17.95364075 -353.16686584 17.03196106 -352.97694397 16.08235168 C-350.89042178 12.88754128 -348.58875342 12.67562025 -344.96083069 11.86116028 C-343.57468567 11.58973206 -343.57468567 11.58973206 -342.16053772 11.31282043 C-341.19390198 11.10866516 -340.22726624 10.90450989 -339.2313385 10.69416809 C-327.81995899 8.37434169 -316.28181114 6.85356753 -304.74452209 5.3162384 C-301.14988854 4.82233182 -297.56979926 4.26080908 -293.98768616 3.68440247 C-281.50973488 1.69201453 -268.95083802 0.52673067 -256.37416077 -0.65080261 C-252.58576817 -1.01331034 -248.80270245 -1.41695227 -245.0191803 -1.82707214 C-226.35797161 -3.82144715 -207.72126078 -5.03252071 -188.97303772 -5.81217957 C-187.48690144 -5.87531714 -186.00076661 -5.93848902 -184.51463318 -6.00169373 C-123.17215209 -8.58447846 -60.91514795 -8.55242801 0 0 Z " fill="#21204D" transform="translate(663.5355377197266,412.1246795654297)"/>
<path d="M0 0 C1.02802734 -0.00386719 2.05605469 -0.00773438 3.11523438 -0.01171875 C18.57303953 0.00806091 18.57303953 0.00806091 21.51171875 2.65625 C21.83785156 3.3059375 22.16398437 3.955625 22.5 4.625 C22.891875 5.3571875 23.28375 6.089375 23.6875 6.84375 C24.05875 7.5965625 24.43 8.349375 24.8125 9.125 C25.53425097 10.46236209 26.2637098 11.79558714 27 13.125 C27.41507812 13.8778125 27.83015625 14.630625 28.2578125 15.40625 C39.15432201 34.46145256 52.21592664 51.93762713 65.8125 69.125 C66.92238281 70.54232422 66.92238281 70.54232422 68.0546875 71.98828125 C76.33451508 82.48407928 85.1570215 92.5230555 94.234375 102.33203125 C96.5953519 104.88975623 98.92818848 107.46925368 101.25 110.0625 C102.77011037 111.75065128 104.29104482 113.43806064 105.8125 115.125 C106.57344971 115.97280029 107.33439941 116.82060059 108.1184082 117.6940918 C117.31398159 127.80313841 126.97722928 137.44311063 136.64990234 147.09277344 C139.08930257 149.52643703 141.52412769 151.96462109 143.95768356 154.40412712 C146.3183058 156.76925972 148.68276038 159.13054575 151.046875 161.4921875 C151.90851257 162.3558493 152.77015015 163.21951111 153.65789795 164.10934448 C158.04021579 168.47484816 162.48469402 172.69750136 167.18609619 176.71878052 C169.16307265 178.42811175 170.99768007 180.24536507 172.8125 182.125 C175.93758502 185.29247959 179.17491889 188.24385247 182.546875 191.14453125 C185.3456631 193.59105809 188.07938136 196.10578499 190.8125 198.625 C194.74858013 202.24929328 198.72031768 205.82218618 202.765625 209.32421875 C205.25324726 211.51275665 207.68603452 213.75739191 210.125 216 C214.64153837 220.12406676 219.30383016 224.00436865 224.0625 227.84375 C226.89349578 230.19218968 229.60633598 232.63409902 232.3125 235.125 C236.78584111 239.24200099 241.40957378 243.10238931 246.140625 246.91796875 C248.7110905 249.04123338 251.17169363 251.24311849 253.625 253.5 C260.62319596 259.87415301 268.15427651 265.61090158 275.70703125 271.30859375 C276.52558594 271.92863281 277.34414063 272.54867188 278.1875 273.1875 C279.25097656 273.97833984 279.25097656 273.97833984 280.3359375 274.78515625 C280.82320312 275.22730469 281.31046875 275.66945313 281.8125 276.125 C281.8125 276.785 281.8125 277.445 281.8125 278.125 C282.5446875 278.3725 283.276875 278.62 284.03125 278.875 C287.09234606 280.25077351 288.89638861 281.80818086 291.3125 284.125 C295.17301941 287.7040232 299.12368592 291.01013876 303.3125 294.1875 C303.8681665 294.609104 304.42383301 295.03070801 304.99633789 295.46508789 C305.54539795 295.88137451 306.09445801 296.29766113 306.66015625 296.7265625 C310.20661919 299.42486268 313.68115898 302.20221332 317.15234375 304.99609375 C320.95612087 308.04023256 324.79279814 311.04195371 328.62719727 314.04736328 C332.16481555 316.822743 335.68424911 319.61873043 339.1875 322.4375 C342.68363059 325.24352977 346.2282338 327.96559948 349.828125 330.63671875 C351.95089183 332.22879387 354.03830008 333.86097861 356.125 335.5 C359.38962073 338.05031055 362.70273115 340.51398023 366.0625 342.9375 C374.71498053 349.19055316 383.11702894 355.77597113 391.51953125 362.359375 C397.65642569 367.08488827 403.89963204 371.62878855 410.25 376.0625 C419.11394173 382.28094283 419.11394173 382.28094283 423.3125 385.625 C428.19960015 389.51376257 433.32716534 393.05557971 438.43774414 396.64135742 C443.45273327 400.16030856 448.42202525 403.7349513 453.3671875 407.3515625 C455.68525656 409.03271802 458.02356246 410.67845018 460.375 412.3125 C464.3939816 415.10719853 468.36147319 417.96745318 472.32177734 420.84423828 C479.16779322 425.81660771 486.0441663 430.675631 493.1171875 435.3203125 C495.7564044 437.08744034 498.31837469 438.92825933 500.875 440.8125 C514.60694348 450.85881363 528.34525283 460.03754414 543.64453125 467.5078125 C559.75068519 475.3753347 575.47122072 487.34761294 587.0625 501.05859375 C588.95374575 503.29178348 590.91061306 505.45598942 592.875 507.625 C617.76034106 535.66886511 631.85496675 573.02301107 634.8125 610.125 C634.97878906 611.97738281 634.97878906 611.97738281 635.1484375 613.8671875 C637.10949733 637.66491352 635.45259372 661.91811311 629.8125 685.125 C629.62284668 685.9180957 629.43319336 686.71119141 629.23779297 687.52832031 C621.92475163 717.71977537 610.48386411 748.70537559 590.8125 773.125 C590.35488281 773.89972656 589.89726563 774.67445313 589.42578125 775.47265625 C575.07875428 799.06014127 548.98852746 822.8498466 523.8125 834.125 C522.78962891 834.59486328 522.78962891 834.59486328 521.74609375 835.07421875 C520.25534756 835.74892141 518.75891888 836.41117249 517.2578125 837.0625 C515.57720859 837.79273045 513.90563031 838.54397931 512.2421875 839.3125 C498.94196421 845.24017612 484.09927911 849.21900965 469.51171875 849.36328125 C468.71707718 849.371353 467.92243561 849.37942474 467.10371399 849.38774109 C465.42194763 849.40152648 463.74015395 849.41227325 462.05834961 849.42016602 C460.37239118 849.43158915 458.68646607 849.45188406 457.00073242 849.48168945 C444.98791149 849.69343686 434.37199421 848.3869289 422.8125 845.125 C421.04712891 844.65803711 421.04712891 844.65803711 419.24609375 844.18164062 C406.29938197 840.69598745 394.45105166 834.19095644 383.8125 826.125 C382.84183594 825.45791016 382.84183594 825.45791016 381.8515625 824.77734375 C375.63322667 820.42450867 370.4881495 814.97243719 365.21118164 809.55615234 C362.26298007 806.53950762 359.26911529 803.57047834 356.25 800.625 C353.91801057 798.23321597 351.89734529 795.73105661 349.8125 793.125 C347.41562046 790.60520356 345.02844333 788.29775467 342.3125 786.125 C337.87368344 782.57394675 334.3489545 778.54556813 330.8125 774.125 C328.41562046 771.60520356 326.02844333 769.29775467 323.3125 767.125 C318.87368344 763.57394675 315.3489545 759.54556813 311.8125 755.125 C309.41562046 752.60520356 307.02844333 750.29775467 304.3125 748.125 C299.87368344 744.57394675 296.3489545 740.54556813 292.8125 736.125 C290.41562046 733.60520356 288.02844333 731.29775467 285.3125 729.125 C282.6024935 726.9569948 280.23528499 724.60835462 277.8125 722.125 C276.966875 721.3 276.12125 720.475 275.25 719.625 C272.8125 717.125 272.8125 717.125 270.8125 714.5625 C268.69371393 711.98022947 266.44047078 710.17609914 263.8125 708.125 C262.13313816 706.47112595 260.46828562 704.80247713 258.8125 703.125 C257.9153125 702.2278125 257.018125 701.330625 256.09375 700.40625 C253.33333333 697.64583333 250.57291667 694.88541667 247.8125 692.125 C246.92433594 691.238125 246.03617188 690.35125 245.12109375 689.4375 C243.52930361 687.84301647 241.9478451 686.23817446 240.375 684.625 C237.8050025 682.05246981 237.8050025 682.05246981 234.8125 679.625 C231.97449698 677.25999749 229.40056133 674.75032941 226.8125 672.125 C224.04465683 669.33035489 221.27272761 666.53979805 218.5 663.75 C217.77876953 663.02039062 217.05753906 662.29078125 216.31445312 661.5390625 C212.2195912 657.42583796 208.03022979 653.51037789 203.63208008 649.72412109 C201.06556185 647.46856032 198.6999007 645.06992842 196.3125 642.625 C192.61044756 638.86668148 188.80931388 635.30682295 184.79296875 631.88671875 C181.64516943 629.08660536 178.72907001 626.06221624 175.79296875 623.04296875 C173.76314723 620.96182933 173.76314723 620.96182933 170.8125 619.125 C170.8125 618.465 170.8125 617.805 170.8125 617.125 C169.97332031 616.77888672 169.97332031 616.77888672 169.1171875 616.42578125 C166.20614105 614.7827669 164.25400923 612.71921597 161.9375 610.3125 C159.11928969 607.42341754 156.35101734 604.63321732 153.1875 602.125 C152.40375 601.465 151.62 600.805 150.8125 600.125 C150.8125 599.465 150.8125 598.805 150.8125 598.125 C150.25046875 597.8775 149.6884375 597.63 149.109375 597.375 C146.42157431 595.91225133 144.34844518 594.15695127 142.0625 592.125 C141.26328125 591.42375 140.4640625 590.7225 139.640625 590 C137.8125 588.125 137.8125 588.125 137.8125 586.125 C137.22098145 585.8556665 136.62946289 585.58633301 136.02001953 585.30883789 C133.81497015 584.12632468 132.29608441 582.90437778 130.4921875 581.18359375 C129.87931885 580.60424072 129.2664502 580.0248877 128.63500977 579.42797852 C127.99233154 578.81237061 127.34965332 578.1967627 126.6875 577.5625 C125.34046282 576.28840766 123.99280578 575.01497037 122.64453125 573.7421875 C121.66154053 572.81164551 121.66154053 572.81164551 120.65869141 571.86230469 C116.77665722 568.20922941 112.80023515 564.66182517 108.8125 561.125 C107.71808594 560.15433594 107.71808594 560.15433594 106.6015625 559.1640625 C103.72197143 556.62702501 100.85352491 554.15662337 97.8125 551.8125 C97.1525 551.255625 96.4925 550.69875 95.8125 550.125 C95.8125 549.465 95.8125 548.805 95.8125 548.125 C95.26078125 547.89167969 94.7090625 547.65835938 94.140625 547.41796875 C91.19994733 545.78480716 89.02172749 543.73160793 86.5625 541.4375 C82.0416932 537.25651223 77.46874159 533.15418327 72.8125 529.125 C56.52401952 544.93440752 44.5933969 564.88355254 32.8125 584.125 C32.173125 585.16398437 31.53375 586.20296875 30.875 587.2734375 C26.92943733 593.84350392 23.58311109 600.58445406 20.4296875 607.55859375 C19.48286556 609.64663345 18.51738219 611.72672223 17.5078125 613.78515625 C5.88894745 637.74431914 0.5726206 665.11664875 -4.1875 691.125 C-4.41405273 692.34525879 -4.64060547 693.56551758 -4.87402344 694.82275391 C-9.15987954 718.20683163 -12.10643909 741.71833904 -14.82763672 765.33203125 C-14.97000763 766.54524048 -15.11237854 767.75844971 -15.25906372 769.00842285 C-15.5281938 771.30511098 -15.79109164 773.6025406 -16.04684448 775.90075684 C-16.16770416 776.92672974 -16.28856384 777.95270264 -16.41308594 779.00976562 C-16.51490173 779.90489868 -16.61671753 780.80003174 -16.72161865 781.72229004 C-17.19466771 784.16196634 -17.96806705 785.97177128 -19.1875 788.125 C-20.06536536 786.39728626 -20.93956173 784.66770841 -21.8125 782.9375 C-22.29976563 781.97457031 -22.78703125 781.01164062 -23.2890625 780.01953125 C-26.04507688 774.44679391 -28.59289921 768.77400928 -31.1875 763.125 C-32.19866028 760.93463793 -33.21037196 758.74453033 -34.22265625 756.5546875 C-35.23177083 754.36979167 -36.24088542 752.18489583 -37.25 750 C-37.75337891 748.91074219 -38.25675781 747.82148437 -38.77539062 746.69921875 C-39.76729913 744.55115299 -40.75774194 742.40240969 -41.74658203 740.25292969 C-42.71663141 738.14715661 -43.69166558 736.04367349 -44.67138672 733.94238281 C-45.12916504 732.95334961 -45.58694336 731.96431641 -46.05859375 730.9453125 C-46.46907959 730.06375488 -46.87956543 729.18219727 -47.30249023 728.27392578 C-48.1875 726.125 -48.1875 726.125 -48.1875 724.125 C-49.80205078 724.70507812 -49.80205078 724.70507812 -51.44921875 725.296875 C-84.54664995 737.125 -84.54664995 737.125 -92.1875 737.125 C-88.22860859 691.91029288 -81.43820898 644.46004991 -60.07763672 603.83349609 C-58.90220647 601.57741796 -57.79664875 599.28925315 -56.6875 597 C-52.15724213 587.93948426 -46.90017267 579.22853422 -41.65234375 570.5703125 C-40.12755847 568.02493761 -38.65920084 565.45139399 -37.1875 562.875 C-29.45266085 549.58342497 -20.98354453 536.69574291 -12.40551758 523.93603516 C-9.57169638 519.7198475 -6.83990093 515.45725485 -4.1875 511.125 C-12.85136793 515.92960969 -21.45263833 520.78990461 -29.85546875 526.04296875 C-32.22366663 527.52274539 -34.59823836 528.98238516 -36.98828125 530.42578125 C-47.63725416 536.90111966 -57.53397123 544.16843856 -67.36328125 551.81835938 C-68.43642578 552.64303711 -68.43642578 552.64303711 -69.53125 553.484375 C-70.18287109 553.98936523 -70.83449219 554.49435547 -71.50585938 555.01464844 C-73.1875 556.125 -73.1875 556.125 -75.1875 556.125 C-75.5175 557.115 -75.8475 558.105 -76.1875 559.125 C-77.84598177 560.13851664 -79.51415961 561.13620795 -81.1875 562.125 C-82.074375 563.011875 -82.96125 563.89875 -83.875 564.8125 C-84.638125 565.575625 -85.40125 566.33875 -86.1875 567.125 C-86.8475 567.125 -87.5075 567.125 -88.1875 567.125 C-88.5278125 567.9603125 -88.5278125 567.9603125 -88.875 568.8125 C-90.55468835 571.7719509 -92.72883285 573.78626784 -95.1875 576.125 C-96.0228125 577.0221875 -96.0228125 577.0221875 -96.875 577.9375 C-98.1875 579.125 -98.1875 579.125 -100.1875 579.125 C-100.43113281 579.67929688 -100.67476562 580.23359375 -100.92578125 580.8046875 C-102.44726026 583.60270154 -104.31653724 585.8195259 -106.375 588.25 C-113.16151558 596.45619872 -118.93614554 605.21670103 -124.75 614.125 C-125.29237305 614.95572021 -125.83474609 615.78644043 -126.39355469 616.64233398 C-131.60340177 624.67431321 -136.59820693 632.73382307 -140.796875 641.34375 C-142.08876207 643.92752414 -143.44682916 646.46675818 -144.82885742 649.00317383 C-150.24192257 658.96004297 -155.08283017 669.18077267 -159.9140625 679.4296875 C-161.0590898 681.85321154 -162.21454829 684.27133561 -163.375 686.6875 C-164.00031016 687.99985226 -164.62533524 689.31234041 -165.25 690.625 C-165.77722656 691.7284375 -166.30445313 692.831875 -166.84765625 693.96875 C-168.27572118 697.33282132 -169.25616072 700.59571433 -170.1875 704.125 C-173.1875 703.125 -173.1875 703.125 -174.94921875 700.08984375 C-175.6010327 698.75216839 -176.24224564 697.40929572 -176.875 696.0625 C-177.5870465 694.59365639 -178.29929157 693.12490901 -179.01171875 691.65625 C-179.37313965 690.90214844 -179.73456055 690.14804688 -180.10693359 689.37109375 C-182.08941262 685.25026071 -184.10957231 681.14657929 -186.21044922 677.0847168 C-187.93133193 673.74551236 -189.47888335 670.44403822 -190.80078125 666.92578125 C-192.997537 661.43193283 -194.94402272 657.10130466 -200.65234375 654.6171875 C-203.7120514 653.89191536 -206.79059696 653.48382786 -209.90625 653.07421875 C-218.24398515 651.96896454 -226.30951554 649.67094951 -234.4375 647.5625 C-245.30568042 644.76423148 -256.15587022 642.20179249 -267.1875 640.125 C-265.73961035 637.08189842 -264.4873692 635.27307232 -261.875 633.125 C-258.10027324 629.93836473 -254.48055508 626.62408343 -250.875 623.25 C-245.17912868 617.94817228 -239.2508598 613.00289522 -233.1875 608.125 C-231.88999769 607.04866286 -230.59754465 605.96618016 -229.3125 604.875 C-228.82007813 604.45734375 -228.32765625 604.0396875 -227.8203125 603.609375 C-226.4623041 602.3748219 -225.15213194 601.08789765 -223.85546875 599.7890625 C-221.09525297 597.03288803 -218.25599137 594.37812604 -215.375 591.75 C-214.84729004 591.26740723 -214.31958008 590.78481445 -213.77587891 590.28759766 C-210.28422529 587.10280893 -206.75452589 583.96689147 -203.18359375 580.87109375 C-200.80794222 578.79297979 -198.46667439 576.67881024 -196.125 574.5625 C-194.48007615 573.08232199 -192.83429352 571.6030976 -191.1875 570.125 C-190.48753906 569.4959375 -189.78757812 568.866875 -189.06640625 568.21875 C-184.42231722 564.125 -184.42231722 564.125 -182.1875 564.125 C-182.1875 563.465 -182.1875 562.805 -182.1875 562.125 C-180.63509659 560.73174046 -179.01720015 559.41119872 -177.375 558.125 C-173.34802706 554.90754658 -169.47692988 551.62461778 -165.6875 548.125 C-161.22282437 544.02181089 -156.6355305 540.13189922 -151.9140625 536.328125 C-150.14425985 534.89808389 -148.38804531 533.4509982 -146.6484375 531.984375 C-139.11562417 525.65772211 -131.14757225 520.04026572 -123.07324219 514.43652344 C-120.78833692 512.84738425 -118.52005936 511.23524972 -116.25 509.625 C-110.90146643 505.88285194 -105.45057812 502.29402368 -100.0144043 498.68115234 C-86.76573518 489.86589499 -86.76573518 489.86589499 -73.96875 480.4140625 C-72.1875 479.125 -72.1875 479.125 -69.89453125 477.76171875 C-66.60313963 475.77168543 -63.49300583 473.5594412 -60.375 471.3125 C-59.75262451 470.86527588 -59.13024902 470.41805176 -58.48901367 469.95727539 C-48.03374408 462.4284449 -38.06333485 454.39934812 -28.1875 446.125 C-34.42746483 439.69594532 -41.29162205 434.19929275 -48.4375 428.8125 C-53.27784616 425.14078215 -58.07767433 421.44783303 -62.75 417.5625 C-68.4912676 412.80294533 -74.46593108 408.37469734 -80.4453125 403.921875 C-84.00303811 401.27088145 -87.51643465 398.56812482 -91 395.8203125 C-97.18646298 391.02580369 -103.51349937 386.43316432 -109.875 381.875 C-115.35602103 377.93423095 -120.79270615 373.95260109 -126.125 369.8125 C-132.8873555 364.56322154 -139.78910742 359.53095968 -146.7734375 354.58203125 C-147.39162354 354.14310547 -148.00980957 353.70417969 -148.64672852 353.25195312 C-149.84342406 352.40318368 -151.04171978 351.55666378 -152.24194336 350.71289062 C-155.02242083 348.7423275 -157.70046935 346.72523165 -160.29296875 344.51171875 C-162.85989739 342.39512847 -165.33873302 340.81632995 -168.1875 339.125 C-169.68966648 338.11494524 -171.18177958 337.08979621 -172.6640625 336.05078125 C-173.49437988 335.46949463 -174.32469727 334.88820801 -175.18017578 334.28930664 C-176.48317627 333.37266235 -176.48317627 333.37266235 -177.8125 332.4375 C-178.7082373 331.80900146 -179.60397461 331.18050293 -180.52685547 330.53295898 C-185.99553353 326.68861619 -191.42656332 322.80025738 -196.8203125 318.8515625 C-203.57902377 313.92194141 -210.46320966 309.26047993 -217.54296875 304.8046875 C-219.90980575 303.30137892 -222.24020602 301.75833871 -224.5625 300.1875 C-228.18908902 297.74814853 -231.89081342 295.45858424 -235.625 293.1875 C-250.7512917 283.91824916 -264.93527756 273.00554154 -277.1875 260.125 C-277.84105469 259.4546875 -278.49460937 258.784375 -279.16796875 258.09375 C-285.54350563 251.33414463 -290.42789765 244.05300431 -295.1875 236.125 C-295.744375 235.22007812 -296.30125 234.31515625 -296.875 233.3828125 C-311.51316855 208.29970077 -313.56408524 177.05757706 -307.1875 149.125 C-304.15356439 138.07611735 -300.5196815 127.27769569 -295.1875 117.125 C-294.55163195 115.82895179 -293.92013626 114.53074951 -293.29296875 113.23046875 C-289.37342014 105.19190084 -285.22644827 97.53332608 -280.1875 90.125 C-279.49914062 89.10019531 -278.81078125 88.07539062 -278.1015625 87.01953125 C-267.54521548 71.51836904 -255.72903128 57.14197746 -243.1171875 43.2734375 C-241.5104221 41.48452865 -239.95867717 39.67381616 -238.4375 37.8125 C-236.15190599 35.08248494 -233.73591345 32.60970312 -231.1875 30.125 C-229.9190625 28.8565625 -229.9190625 28.8565625 -228.625 27.5625 C-227.820625 26.758125 -227.01625 25.95375 -226.1875 25.125 C-225.506875 24.34125 -224.82625 23.5575 -224.125 22.75 C-222.1875 21.125 -222.1875 21.125 -220.39941406 21.1706543 C-217.11388571 22.58821835 -215.15845007 25.12218355 -212.859375 27.76953125 C-208.34336578 32.81567953 -203.70962803 37.6913211 -198.890625 42.44921875 C-198.27924683 43.0548465 -197.66786865 43.66047424 -197.03796387 44.28445435 C-194.5266813 46.76913609 -192.0107841 49.24906787 -189.49121094 51.7253418 C-187.62006855 53.56652514 -185.75500481 55.41369176 -183.890625 57.26171875 C-183.31580383 57.82308029 -182.74098267 58.38444183 -182.14874268 58.96281433 C-180.7900324 60.31272752 -179.48311446 61.7144177 -178.1875 63.125 C-178.1875 63.785 -178.1875 64.445 -178.1875 65.125 C-177.1975 65.455 -176.2075 65.785 -175.1875 66.125 C-173.5 68.1875 -173.5 68.1875 -172.1875 70.125 C-168.24896384 68.47366195 -165.29772675 65.78113075 -162.125 63 C-156.36487113 58.03977624 -150.41262553 53.49285419 -144.1875 49.125 C-143.37925781 48.54234375 -142.57101562 47.9596875 -141.73828125 47.359375 C-106.95948243 22.49337391 -65.81131176 5.55535466 -23.1875 1.125 C-22.32584229 1.0307373 -21.46418457 0.93647461 -20.57641602 0.83935547 C-13.70570355 0.14126498 -6.90299987 -0.02626379 0 0 Z M-26.375 42.875 C-27.37821289 43.05764404 -28.38142578 43.24028809 -29.41503906 43.4284668 C-71.81545659 51.31999504 -110.05851333 71.45170406 -142.1875 100.125 C-137.38465445 105.93515376 -132.20210623 111.29661255 -126.87255859 116.62524414 C-125.42124698 118.0787779 -123.97816512 119.54018173 -122.53515625 121.00195312 C-121.62121094 121.91783203 -120.70726562 122.83371094 -119.765625 123.77734375 C-118.93450195 124.61257568 -118.10337891 125.44780762 -117.24707031 126.30834961 C-115.39523004 128.3454984 -115.39523004 128.3454984 -113.1875 128.125 C-112.96803711 128.68219727 -112.74857422 129.23939453 -112.52246094 129.81347656 C-110.75131657 132.88026421 -108.48394875 134.76795328 -105.828125 137.109375 C-101.44706849 141.02893565 -97.18739534 145.02992073 -93.046875 149.203125 C-92.54321411 149.71008911 -92.03955322 150.21705322 -91.52062988 150.73937988 C-89.99087202 152.28257703 -88.46373111 153.82831525 -86.9375 155.375 C-81.09758247 161.29209706 -75.29002123 167.17008738 -68.96191406 172.57324219 C-66.05797883 175.11278709 -63.3820665 177.86714949 -60.6875 180.625 C-56.53123678 184.83411744 -52.32263687 188.88513366 -47.8125 192.71875 C-45.48434864 194.73349637 -43.36404589 196.94845411 -41.1875 199.125 C-39.86092473 200.29934532 -38.52700696 201.46542681 -37.1875 202.625 C-33.48056851 205.83906232 -30.00978093 209.21637659 -26.62109375 212.765625 C-25.17831867 214.25359545 -23.68596793 215.69313064 -22.1875 217.125 C-21.5275 217.125 -20.8675 217.125 -20.1875 217.125 C-19.94257813 217.70636719 -19.69765625 218.28773438 -19.4453125 218.88671875 C-17.96955564 221.51283267 -16.34773345 222.97374855 -14.0625 224.9375 C-8.61359883 229.71320844 -3.33612777 234.65198913 1.92626953 239.63208008 C5.86692146 243.34703208 9.87530075 246.96229352 13.96435547 250.51318359 C16.44841739 252.67960061 18.88165938 254.89917003 21.3125 257.125 C25.21640876 260.68731674 29.15386649 264.20113593 33.15625 267.65234375 C34.77142845 269.0884812 36.30076051 270.58099777 37.8125 272.125 C41.83598983 270.55099588 44.00336463 267.90212069 46.8125 264.6875 C60.03278794 249.8723194 75.27353958 238.43616764 92.8125 229.125 C94.07900391 228.41730469 94.07900391 228.41730469 95.37109375 227.6953125 C110.80747389 219.43117556 127.69839561 216.01992313 144.8125 213.125 C143.8793241 212.01048354 142.9423828 210.89911925 142.00390625 209.7890625 C141.48256104 209.1698291 140.96121582 208.5505957 140.42407227 207.91259766 C138.102315 205.33724442 135.50916035 203.30527858 132.8125 201.125 C131.13104764 199.47128929 129.46943842 197.80300119 127.8125 196.125 C126.45715797 194.76810289 125.10095249 193.41206799 123.74414062 192.05664062 C92.88085938 161.19335938 92.88085938 161.19335938 90.73092651 159.04270935 C89.56371048 157.87592965 88.39572358 156.70991956 87.22634888 155.54530334 C84.62551755 152.95423619 82.12858252 150.3052372 79.6875 147.5625 C76.2164615 143.68072194 72.71407771 139.8311348 69.1875 136 C64.99238442 131.43312912 60.86893964 126.81525833 56.8125 122.125 C55.81278506 120.97891795 54.81275425 119.83311139 53.8125 118.6875 C35.48484541 97.66507716 17.98543213 75.74510729 3 52.1875 C2.14728516 50.86492188 2.14728516 50.86492188 1.27734375 49.515625 C-0.1875 47.125 -0.1875 47.125 -1.12109375 45.109375 C-1.95721565 43.17654034 -1.95721565 43.17654034 -4.1875 41.125 C-11.58550466 40.17284565 -19.10940427 41.52186042 -26.375 42.875 Z M-221.1875 80.125 C-223.30083758 82.40090201 -225.24301195 84.70596427 -227.1875 87.125 C-227.59742188 87.63466309 -228.00734375 88.14432617 -228.4296875 88.66943359 C-239.76239277 102.80665588 -249.33256138 117.32456149 -257.5 133.5 C-257.82540771 134.14146973 -258.15081543 134.78293945 -258.48608398 135.44384766 C-261.91620843 142.35043753 -264.36669035 149.35867012 -266.3125 156.8125 C-266.64507812 158.07449219 -266.97765625 159.33648438 -267.3203125 160.63671875 C-267.60648438 161.78785156 -267.89265625 162.93898438 -268.1875 164.125 C-268.38472656 164.90746094 -268.58195312 165.68992187 -268.78515625 166.49609375 C-271.23842055 182.52567507 -268.78891837 198.77565585 -261.1875 213.125 C-260.76855469 213.92164063 -260.34960938 214.71828125 -259.91796875 215.5390625 C-256.17270305 222.20419099 -251.46785919 227.62709792 -246.1875 233.125 C-245.383125 233.970625 -244.57875 234.81625 -243.75 235.6875 C-233.29926388 245.62844411 -222.44949716 253.41600612 -210.14575195 260.86230469 C-198.17091467 268.13181121 -186.66875119 276.10611046 -175.1875 284.125 C-174.30320312 284.74246094 -173.41890625 285.35992188 -172.5078125 285.99609375 C-170.06625416 287.70366337 -167.62682973 289.41424895 -165.1875 291.125 C-164.44757813 291.64191406 -163.70765625 292.15882813 -162.9453125 292.69140625 C-157.47650103 296.51220887 -152.01786611 300.34753202 -146.5625 304.1875 C-145.85794678 304.68209717 -145.15339355 305.17669434 -144.42749023 305.6862793 C-140.28007687 308.60888167 -136.19278574 311.59763266 -132.14306641 314.65405273 C-129.01346859 317.00808855 -125.84944863 319.31471025 -122.6875 321.625 C-118.81631073 324.45717288 -114.94747233 327.2896862 -111.125 330.1875 C-107.52825687 332.90276561 -103.85876907 335.51205 -100.1875 338.125 C-93.54405357 342.85628168 -87.02003164 347.70896811 -80.56494141 352.69506836 C-80.00726074 353.1256958 -79.44958008 353.55632324 -78.875 354 C-78.03267822 354.65077515 -78.03267822 354.65077515 -77.17333984 355.31469727 C-73.74027927 357.95790693 -70.26943417 360.53452885 -66.75 363.0625 C-61.97352948 366.50680461 -57.35019541 370.11497663 -52.73730469 373.77270508 C-47.55565559 377.86840086 -42.27202652 381.81764134 -36.97167969 385.7578125 C-31.89329857 389.55100134 -26.98193657 393.49897582 -22.12890625 397.578125 C-20.47086967 399.22885976 -20.47086967 399.22885976 -19.1875 399.125 C-19.11273438 398.06925781 -19.03796875 397.01351563 -18.9609375 395.92578125 C-16.40548298 365.27436791 -2.48421421 336.69769109 13.75390625 310.9375 C14.96768054 309.00177105 14.96768054 309.00177105 15.8125 306.125 C15.28140625 305.66609375 14.7503125 305.2071875 14.203125 304.734375 C8.18278015 299.50502436 8.18278015 299.50502436 5.4375 296.6875 C3.94794499 294.89396376 3.94794499 294.89396376 1.8125 295.125 C1.59207031 294.55652344 1.37164062 293.98804688 1.14453125 293.40234375 C-0.60113006 290.41782603 -2.77990623 288.81130799 -5.5 286.6875 C-9.32459963 283.68730247 -12.77949042 280.58896197 -16.1875 277.125 C-18.69003556 274.73047201 -21.22010396 272.36556608 -23.75 270 C-24.45890381 269.33621338 -25.16780762 268.67242676 -25.89819336 267.98852539 C-30.94617574 263.26853374 -36.02982062 258.5901435 -41.1328125 253.9296875 C-44.65290908 250.70660632 -48.13871484 247.44706371 -51.625 244.1875 C-63.72534352 232.73604484 -63.72534352 232.73604484 -76.1875 221.6875 C-79.7892527 218.6110029 -83.12185601 215.52136109 -86 211.75 C-89.03666482 208.10600221 -92.58748525 205.19895625 -96.1875 202.125 C-108.46472772 191.38242574 -108.46472772 191.38242574 -112 186.75 C-114.35086457 183.92896252 -116.89930337 181.74095044 -119.69140625 179.37109375 C-123.56466198 175.88576973 -127.17720053 172.14109009 -130.79467773 168.39257812 C-132.22289989 166.93385936 -133.70144371 165.52475557 -135.1875 164.125 C-135.8475 164.125 -136.5075 164.125 -137.1875 164.125 C-137.55875 163.196875 -137.55875 163.196875 -137.9375 162.25 C-139.00893729 159.98753506 -139.00893729 159.98753506 -141.1875 159.125 C-143.74910784 157.84419608 -143.95211393 156.6684419 -145.1875 154.125 C-147.57140134 151.54780936 -149.98232211 149.28513884 -152.75 147.125 C-155.33227053 145.00621393 -157.13640086 142.75297078 -159.1875 140.125 C-160.8329378 138.43737149 -162.50038577 136.7709651 -164.1875 135.125 C-165.0125 134.279375 -165.8375 133.43375 -166.6875 132.5625 C-169.11665533 130.10484112 -169.11665533 130.10484112 -171.75 128.125 C-174.33227053 126.00621393 -176.13640086 123.75297078 -178.1875 121.125 C-179.8329378 119.43737149 -181.50038577 117.7709651 -183.1875 116.125 C-184.0125 115.279375 -184.8375 114.43375 -185.6875 113.5625 C-188.11665533 111.10484112 -188.11665533 111.10484112 -190.75 109.125 C-193.33227053 107.00621393 -195.13640086 104.75297078 -197.1875 102.125 C-200.40766292 98.59955665 -200.40766292 98.59955665 -204.375 96.0625 C-206.1875 95.125 -206.1875 95.125 -206.95703125 93.42578125 C-208.66718329 90.22806838 -211.12873281 87.89409638 -213.6875 85.375 C-214.18636719 84.86839844 -214.68523437 84.36179687 -215.19921875 83.83984375 C-217.71811637 80.99694401 -217.71811637 80.99694401 -221.1875 80.125 Z M184 312.875 C183.26007813 313.27332031 182.52015625 313.67164063 181.7578125 314.08203125 C179.8125 315.125 179.8125 315.125 176.375 316.5625 C168.04246298 320.2171215 160.61082887 324.77462196 153.33984375 330.23046875 C151.13662534 331.88203123 148.89907513 333.44887029 146.625 335 C145.696875 335.70125 144.76875 336.4025 143.8125 337.125 C143.8125 337.785 143.8125 338.445 143.8125 339.125 C143.25046875 339.35960937 142.6884375 339.59421875 142.109375 339.8359375 C139.26614109 341.43163 137.33151873 343.41424543 135.0625 345.75 C134.26328125 346.56726562 133.4640625 347.38453125 132.640625 348.2265625 C132.03734375 348.85304688 131.4340625 349.47953125 130.8125 350.125 C137.83007784 357.36187715 145.58032636 363.55233584 153.5859375 369.65234375 C156.36112973 371.76999631 159.0946906 373.93393216 161.8125 376.125 C166.72154597 380.07618334 171.7126295 383.91426464 176.71484375 387.74609375 C179.30138171 389.73247662 181.87267945 391.73576704 184.4375 393.75 C188.53439041 396.9448228 192.72536383 399.99986239 196.94140625 403.03515625 C199.17797666 404.66313607 201.39542317 406.30926313 203.60546875 407.97265625 C213.8936258 415.70544214 224.32220304 423.23966067 235.0859375 430.296875 C237.90737598 432.18861312 240.64197809 434.17045284 243.375 436.1875 C247.83471787 439.468212 252.41435767 442.463499 257.109375 445.39453125 C260.63972246 447.65456582 264.03536309 450.08320951 267.42578125 452.546875 C269.82227612 454.20054192 269.82227612 454.20054192 272.62109375 455.52734375 C276.43202278 457.43514053 279.9689654 459.65340094 283.5625 461.9375 C284.98663398 462.83388198 286.4111124 463.72971697 287.8359375 464.625 C288.86219238 465.27082031 288.86219238 465.27082031 289.90917969 465.9296875 C296.11657374 469.82802014 302.33701304 473.49803541 308.92578125 476.71484375 C311.81473941 478.12609395 314.68512273 479.57040251 317.5546875 481.02050781 C320.3246117 482.41461589 323.10426773 483.78873654 325.88427734 485.16259766 C327.58424582 486.01107521 329.2717073 486.88451287 330.95703125 487.76171875 C341.08963237 492.82137934 354.38882816 498.125 365.8125 498.125 C365.66216309 499.05675049 365.66216309 499.05675049 365.50878906 500.00732422 C365.36666992 500.8892041 365.22455078 501.77108398 365.078125 502.6796875 C364.91820068 503.67178223 364.75827637 504.66387695 364.59350586 505.68603516 C364.23186122 507.94303023 363.873427 510.20054152 363.51782227 512.45849609 C362.6509617 517.95704137 361.76626444 523.44667412 360.76171875 528.921875 C348.1276788 600.03070521 346.80596761 689.71892345 378.8125 756.125 C379.28171875 757.1046875 379.7509375 758.084375 380.234375 759.09375 C384.18086158 766.80935297 389.37172971 773.42599735 394.8125 780.125 C395.44542969 780.91390625 396.07835937 781.7028125 396.73046875 782.515625 C400.61454945 787.17296661 404.85756046 790.65952124 409.8125 794.125 C410.34230469 794.54394531 410.87210938 794.96289062 411.41796875 795.39453125 C420.94371435 802.80344449 432.07215809 806.16339674 443.8125 808.125 C445.111875 808.351875 446.41125 808.57875 447.75 808.8125 C460.16472108 810.04871163 471.71146524 808.74607433 483.8125 806.125 C484.71484375 805.93164062 485.6171875 805.73828125 486.546875 805.5390625 C494.79458913 803.40794173 502.34012186 799.11561053 509.8125 795.125 C510.72257812 794.6403125 511.63265625 794.155625 512.5703125 793.65625 C522.16651595 788.20890019 531.14549695 781.04214997 538.8125 773.125 C539.62203125 772.34125 540.4315625 771.5575 541.265625 770.75 C544.23818106 767.68626124 546.90795183 764.46424448 549.5625 761.125 C550.08400635 760.46999512 550.6055127 759.81499023 551.14282227 759.14013672 C558.12357355 750.28895001 564.6624227 741.17844432 569.8125 731.125 C570.10479492 730.57005859 570.39708984 730.01511719 570.69824219 729.44335938 C575.88319527 719.58936895 580.22808976 709.66495953 583.8125 699.125 C584.06241699 698.41520996 584.31233398 697.70541992 584.56982422 696.97412109 C599.06525661 655.32617932 600.83941236 605.2488228 581.73242188 564.84082031 C576.02077224 553.13442189 569.20758587 542.82670448 560.8125 532.875 C560.08293091 532.00645386 560.08293091 532.00645386 559.33862305 531.12036133 C556.26289518 527.55108047 553.00891 524.43910913 549.37084961 521.44433594 C547.8125 520.125 547.8125 520.125 545.375 517.625 C533.0250581 505.5762762 517.68358654 497.88412975 500.38745117 497.80151367 C494.1614102 497.89511339 489.32634388 499.17498625 483.8125 502.125 C482.719375 502.62 481.62625 503.115 480.5 503.625 C475.54196551 506.39227507 471.75623064 510.0826761 467.8125 514.125 C467.008125 514.90875 466.20375 515.6925 465.375 516.5 C459.1771577 522.84900919 454.48868358 529.58422938 449.8125 537.125 C448.49736047 539.1382048 447.15881047 541.1324605 445.8125 543.125 C446.82563282 545.65783204 447.32233207 546.87991604 449.8125 548.125 C451.8125 549.125 451.8125 549.125 452.66796875 550.9375 C454.08880845 553.65309806 455.80690164 555.1217988 458.125 557.125 C462.28754924 560.77551352 466.38297755 564.48088298 470.4375 568.25 C474.52692794 572.03871733 478.64837484 575.77639688 482.86328125 579.42578125 C485.15934237 581.42735758 487.42429041 583.46135694 489.6875 585.5 C490.53183594 586.26054688 491.37617187 587.02109375 492.24609375 587.8046875 C493.92947748 589.32665087 495.60929835 590.85256626 497.28515625 592.3828125 C501.49580752 596.21310383 505.75584139 599.92669707 510.1875 603.5 C514.20076284 606.74452517 518.03665384 610.11247183 521.8125 613.625 C526.33117942 617.82479038 530.99552348 621.77895895 535.79296875 625.65625 C539.54732538 628.72578867 543.25203225 631.84825955 546.9375 635 C547.60177002 635.55993652 548.26604004 636.11987305 548.95043945 636.69677734 C549.56749756 637.2273877 550.18455566 637.75799805 550.8203125 638.3046875 C551.37348145 638.77632324 551.92665039 639.24795898 552.49658203 639.73388672 C553.8125 641.125 553.8125 641.125 554.8125 644.125 C554.45458984 646.61425781 554.45458984 646.61425781 553.7734375 649.578125 C553.5254541 650.66496582 553.2774707 651.75180664 553.02197266 652.87158203 C552.74659668 654.02770996 552.4712207 655.18383789 552.1875 656.375 C551.76863525 658.14593018 551.76863525 658.14593018 551.34130859 659.95263672 C545.37559184 684.70271291 535.06254533 711.62599329 513.15625 726.75390625 C503.78686081 732.23499893 494.74679292 736.26428306 483.8125 737.125 C483.09320312 737.19460938 482.37390625 737.26421875 481.6328125 737.3359375 C469.06485742 737.95247869 456.69490706 734.08138882 445.8125 728.125 C444.89082031 727.62226562 443.96914063 727.11953125 443.01953125 726.6015625 C431.90652144 720.02676593 422.13559779 710.74155446 414.8125 700.125 C414.30460937 699.39796875 413.79671875 698.6709375 413.2734375 697.921875 C411.74512187 695.68034541 410.2694995 693.41346055 408.8125 691.125 C408.31878906 690.35542969 407.82507813 689.58585937 407.31640625 688.79296875 C385.45397151 653.64271654 383.16841719 615.28835194 391.56005859 575.58837891 C394.89518877 561.54152308 399.6920425 548.184745 405.8125 535.125 C406.13331543 534.43116211 406.45413086 533.73732422 406.78466797 533.02246094 C413.65414351 518.29268657 421.87985956 504.22259393 432.8125 492.125 C433.68132812 491.16207031 434.55015625 490.19914062 435.4453125 489.20703125 C443.27773711 480.83851104 452.29988012 474.45407577 461.8125 468.125 C463.2975 467.135 463.2975 467.135 464.8125 466.125 C463.75428287 465.18266832 462.69067677 464.24638732 461.625 463.3125 C460.73748047 462.52939453 460.73748047 462.52939453 459.83203125 461.73046875 C457.60059271 459.95653985 455.25674075 458.59122962 452.8125 457.125 C451.31033352 456.11494524 449.81822042 455.08979621 448.3359375 454.05078125 C447.50602295 453.46981689 446.6761084 452.88885254 445.82104492 452.2902832 C444.51744019 451.37315552 444.51744019 451.37315552 443.1875 450.4375 C442.28813721 449.80610107 441.38877441 449.17470215 440.4621582 448.52416992 C433.64623941 443.73065828 426.8864039 438.86854178 420.18115234 433.92138672 C418.35073013 432.57150737 416.51939601 431.22287861 414.6875 429.875 C414.05948486 429.41270996 413.43146973 428.95041992 412.78442383 428.47412109 C407.96357858 424.93838983 403.08458546 421.49156029 398.1875 418.0625 C391.92876655 413.67545815 385.83275935 409.13128067 379.8046875 404.43359375 C376.92684986 402.21322555 374.00989515 400.06435993 371.0625 397.9375 C367.12493892 395.09590283 363.27502531 392.1712361 359.45703125 389.171875 C355.93903055 386.44893207 352.37569513 383.78838597 348.8125 381.125 C343.0979027 376.85089711 337.42435006 372.53352939 331.8125 368.125 C330.31306776 366.95760372 328.8130542 365.79095378 327.3125 364.625 C325.04908051 362.86543737 322.78659168 361.10476051 320.52734375 359.33984375 C317.08331177 356.65196288 313.63256663 353.9795548 310.125 351.375 C299.70573329 343.59694461 289.60370903 335.38393792 279.46875 327.2421875 C275.84936057 324.3396252 272.22790215 321.44198263 268.5625 318.59765625 C261.68250288 313.24978381 254.95989173 307.7831088 248.43066406 302.00878906 C233.77832729 289.18691511 199.69070852 304.97012105 184 312.875 Z M108.8125 386.125 C102.78097093 397.48307422 97.96855687 408.96026381 93.8125 421.125 C93.55227051 421.87056152 93.29204102 422.61612305 93.02392578 423.38427734 C88.07233387 437.66759478 84.68307818 452.29407979 81.8125 467.125 C81.55654053 468.37361816 81.55654053 468.37361816 81.29541016 469.64746094 C80.4558717 473.95993757 79.91975257 477.7986086 80.8125 482.125 C83.54020846 486.03866866 86.91574271 488.43758118 90.8125 491.125 C92.6164262 492.56814096 94.40812298 494.02669658 96.1875 495.5 C97.095 496.23476562 98.0025 496.96953125 98.9375 497.7265625 C104.93586293 502.73063158 110.74770354 508.01061136 116.2265625 513.578125 C119.29109722 516.59636766 122.52370344 519.35622683 125.8125 522.125 C129.99345654 525.64486512 133.9724333 529.22780834 137.8125 533.125 C139.40533136 534.59570563 141.0095452 536.054181 142.625 537.5 C143.50414062 538.28761719 144.38328125 539.07523438 145.2890625 539.88671875 C147.34638077 541.71155369 149.41759156 543.51653639 151.5 545.3125 C155.5305169 548.81765421 159.4162546 552.4723889 163.3125 556.125 C168.39770595 560.89160274 173.5172967 565.59127505 178.8125 570.125 C180.21033024 571.33102271 181.60613213 572.53939994 183 573.75 C183.61230469 574.27851562 184.22460938 574.80703125 184.85546875 575.3515625 C187.2593287 577.52991064 189.5308472 579.81911113 191.8125 582.125 C192.6375 582.95 193.4625 583.775 194.3125 584.625 C201.8125 592.125 201.8125 592.125 204.27734375 594.65625 C207.70646586 597.99554919 211.43487594 600.88437522 215.19140625 603.84375 C217.77363646 606.0911754 219.71380399 608.4329097 221.8125 611.125 C222.94794654 612.18044917 224.11514903 613.20283637 225.3125 614.1875 C229.5208968 617.77562936 233.39106834 621.6405617 237.24804688 625.59790039 C239.93559804 628.33240165 242.69079156 630.91329564 245.6015625 633.41015625 C251.26292938 638.30490776 256.40991651 643.7115883 261.62890625 649.06835938 C262.78326172 650.23915039 262.78326172 650.23915039 263.9609375 651.43359375 C264.65364746 652.14314209 265.34635742 652.85269043 266.06005859 653.58374023 C267.67383732 655.34513776 267.67383732 655.34513776 269.8125 655.125 C270.03663574 655.68687012 270.26077148 656.24874023 270.49169922 656.82763672 C272.20831272 659.81346538 274.35507454 661.60980048 276.9453125 663.8828125 C281.97286838 668.37380753 286.80231516 673.023754 291.5546875 677.8046875 C292.218172 678.47147522 292.88165649 679.13826294 293.56524658 679.82525635 C295.60799891 681.88153073 297.64817815 683.9403237 299.6875 686 C302.41109601 688.75036041 305.13812411 691.49725329 307.8671875 694.2421875 C308.47666229 694.85996063 309.08613708 695.47773376 309.71408081 696.11422729 C313.25828546 699.67856634 316.89956475 702.96859039 320.8125 706.125 C320.73733154 705.56554688 320.66216309 705.00609375 320.5847168 704.4296875 C319.75655295 698.19999242 318.98983994 691.96429788 318.24902344 685.72363281 C317.97076727 683.42973132 317.68096721 681.13717991 317.37597656 678.84667969 C311.69998786 635.87133665 312.75120857 589.81825696 318.36035156 546.88964844 C318.45232819 546.18069427 318.54430481 545.47174011 318.6390686 544.74130249 C318.89690981 542.77897951 319.16418453 540.81790258 319.43212891 538.85693359 C319.83579379 534.89645772 319.87576961 531.10218262 319.8125 527.125 C316.31709196 525.01319098 313.16761914 523.25182826 309.3125 521.875 C289.9626829 514.89878511 271.10009607 502.13446908 253.8125 491.125 C252.97332031 490.59229492 252.97332031 490.59229492 252.1171875 490.04882812 C245.00157813 485.52712481 237.94732995 480.91867595 230.9453125 476.22265625 C228.67404141 474.7018675 226.3985796 473.18903016 224.1171875 471.68359375 C217.58153957 467.36437573 211.13301629 462.97737954 204.828125 458.32421875 C200.98280369 455.51992355 197.08421002 452.79470018 193.1875 450.0625 C188.05214387 446.45510589 183.00470997 442.79269216 178.09375 438.8828125 C175.16529226 436.62629541 172.14557522 434.50521396 169.125 432.375 C162.4352507 427.64225738 155.99277477 422.63848865 149.58447266 417.53369141 C146.56653032 415.13447299 143.53256768 412.75568438 140.5 410.375 C139.91105957 409.91174316 139.32211914 409.44848633 138.71533203 408.97119141 C135.55240487 406.48430975 132.37645439 404.01598383 129.1875 401.5625 C126.65888059 399.60791989 124.1813944 397.60659352 121.73828125 395.546875 C121.20219238 395.09513916 120.66610352 394.64340332 120.11376953 394.17797852 C118.576086 392.87687957 117.04375783 391.5694593 115.51171875 390.26171875 C113.29659048 388.50820911 111.38890937 387.23267244 108.8125 386.125 Z M430.8125 587.125 C430.32776322 588.81090842 429.85001074 590.49882545 429.375 592.1875 C429.10816406 593.12722656 428.84132813 594.06695313 428.56640625 595.03515625 C424.7986844 610.47695929 424.54754893 629.38393866 430.8125 644.125 C431.4190089 645.93671757 432.0231786 647.74921993 432.625 649.5625 C436.83087112 660.80543176 442.40520489 670.69177803 449.8125 680.125 C450.23015625 680.70765625 450.6478125 681.2903125 451.078125 681.890625 C456.76890161 689.50504441 466.87999682 695.84532445 476.24609375 697.57421875 C483.3424262 698.07240122 488.44617443 695.66438359 493.8125 691.125 C501.24618049 683.02996004 510.11775112 669.26727089 509.734375 657.78515625 C508.4053629 653.95016796 505.69846282 652.02069715 502.625 649.5625 C501.34481324 648.50289266 500.06487229 647.44298828 498.78515625 646.3828125 C498.12660645 645.84430664 497.46805664 645.30580078 496.78955078 644.75097656 C493.67612861 642.19041943 490.61962954 639.56477348 487.5625 636.9375 C486.68561523 636.18750732 486.68561523 636.18750732 485.79101562 635.42236328 C482.35504109 632.4773806 478.97236456 629.48344311 475.625 626.4375 C470.5151473 621.79906699 465.18018554 617.45978706 459.8125 613.125 C455.92734741 609.97753461 452.34951173 606.66201173 448.8125 603.125 C446.79903957 601.34164933 444.76477727 599.58372387 442.73046875 597.82421875 C440.32222865 595.69064555 438.08702873 593.39952873 435.8125 591.125 C434.16385455 589.76944707 432.50246005 588.42868347 430.8125 587.125 Z " fill="#4F3B6F" transform="translate(439.1875,699.875)"/>
</svg>
